<?xml version="1.0" standalone="no"?>
<!DOCTYPE svg PUBLIC "-//W3C//DTD SVG 20010904//EN"
 "http://www.w3.org/TR/2001/REC-SVG-20010904/DTD/svg10.dtd">
<svg version="1.0" xmlns="http://www.w3.org/2000/svg"
 width="603.000000pt" height="174.000000pt" viewBox="0 0 603.000000 174.000000"
 preserveAspectRatio="xMidYMid meet">
<metadata>
Created by potrace 1.15, written by Peter Selinger 2001-2017
</metadata>
<g transform="translate(0.000000,174.000000) scale(0.100000,-0.100000)"
fill="#000000" stroke="none">
<path d="M1025 1731 c-41 -11 -83 -35 -103 -58 -86 -96 -109 -179 -112 -390 0
-42 -1 -43 -35 -43 -24 0 -35 -5 -35 -15 0 -11 11 -15 40 -15 l40 0 0 -575 c0
-560 0 -575 -19 -575 -11 0 -26 -3 -35 -6 -46 -18 4 -24 194 -24 180 0 210 2
210 15 0 11 -13 15 -53 15 l-52 0 -2 575 -1 575 74 0 c59 0 74 3 74 15 0 12
-14 15 -70 15 l-70 0 -7 33 c-4 17 -6 36 -5 41 4 11 -58 208 -68 219 -13 15 6
92 29 119 29 33 79 43 123 25 l33 -14 -42 -21 c-54 -28 -73 -56 -73 -110 0
-35 6 -49 29 -73 41 -40 88 -40 136 2 32 29 35 36 35 87 0 70 -29 134 -75 162
-38 23 -115 33 -160 21z"/>
<path d="M1488 1725 c-20 -8 -51 -29 -68 -47 -36 -40 -90 -147 -90 -180 0 -13
-4 -28 -10 -34 -5 -5 -12 -57 -16 -117 l-7 -107 -28 0 c-19 0 -29 -5 -29 -15
0 -10 11 -15 35 -15 l35 0 0 -575 0 -575 -35 0 c-24 0 -35 -5 -35 -15 0 -13
31 -15 215 -15 184 0 215 2 215 15 0 12 -13 15 -60 15 l-60 0 0 575 0 575 80
0 c64 0 80 3 80 15 0 12 -15 15 -75 15 l-75 0 0 40 c0 21 -15 81 -34 132 -42
119 -50 161 -36 203 14 43 49 65 102 65 70 0 79 -15 25 -41 -26 -13 -47 -29
-47 -36 0 -7 -5 -21 -11 -32 -18 -28 -2 -86 31 -115 28 -23 46 -26 112 -17 4
1 18 18 31 39 27 41 34 119 16 155 -16 32 -60 77 -89 92 -32 16 -125 16 -172
0z"/>
<path d="M2183 1713 c-38 -3 -53 -8 -53 -19 0 -9 11 -14 35 -14 l35 0 0 -810
0 -810 -30 0 c-20 0 -30 -5 -30 -15 0 -13 21 -15 147 -13 l147 3 8 32 8 33 36
-40 c41 -45 90 -65 137 -55 161 33 226 272 206 760 -8 176 -28 293 -65 372
-63 132 -185 162 -280 68 l-44 -44 -2 277 -3 277 -100 1 c-55 0 -124 -1 -152
-3z m388 -550 c11 -13 14 -91 13 -422 -3 -659 -2 -641 -19 -647 -35 -14 -63 6
-92 64 l-28 57 0 415 c0 445 2 461 52 520 28 34 54 38 74 13z"/>
<path d="M2973 1712 c-38 -2 -53 -7 -53 -18 0 -9 11 -14 35 -14 l34 0 3 -652
c2 -359 2 -724 0 -810 l-3 -158 -29 0 c-20 0 -30 -5 -30 -15 0 -8 6 -15 13
-16 55 -4 291 -6 325 -2 51 6 58 30 10 35 l-33 3 0 825 0 825 -110 0 c-60 0
-134 -1 -162 -3z"/>
<path d="M223 1240 c-49 -22 -119 -100 -148 -165 -60 -135 -79 -321 -62 -600
3 -60 13 -137 22 -170 19 -72 67 -173 102 -215 24 -29 95 -74 118 -75 6 0 16
-4 23 -9 17 -10 141 3 173 20 70 35 165 178 171 256 2 18 6 36 11 39 17 13 25
358 13 535 -6 84 -42 204 -80 269 -25 43 -114 123 -139 127 -71 9 -171 3 -204
-12z m141 -43 c11 -8 23 -35 28 -63 10 -53 12 -955 2 -1017 -8 -50 -45 -80
-79 -65 -13 6 -29 25 -35 42 -12 33 -15 1015 -4 1064 11 48 52 65 88 39z"/>
<path d="M3650 1251 c-109 -34 -176 -119 -222 -286 -19 -72 -22 -105 -22 -325
-1 -271 9 -341 63 -456 58 -124 135 -178 251 -177 147 0 240 94 291 291 22 89
42 322 34 407 -13 142 -15 162 -20 200 -23 164 -118 312 -223 343 -44 13 -113
14 -152 3z m116 -62 c18 -20 19 -44 19 -559 0 -515 -1 -539 -19 -559 -28 -30
-71 -28 -93 6 -17 25 -18 67 -18 559 0 509 1 533 19 553 24 27 68 27 92 0z"/>
<path d="M4373 1235 c-153 -78 -219 -284 -209 -657 7 -263 50 -413 146 -502
55 -51 104 -70 182 -70 65 1 156 40 181 78 9 13 24 31 34 41 10 10 18 21 18
24 1 3 10 31 22 61 45 120 57 204 58 405 0 217 -15 339 -55 433 -61 144 -131
202 -254 209 -62 4 -78 1 -123 -22z m165 -57 c10 -21 13 -143 13 -548 0 -580
0 -573 -62 -578 -22 -2 -40 2 -47 11 -23 27 -27 139 -22 623 6 545 3 528 69
522 28 -2 39 -9 49 -30z"/>
<path d="M5294 1250 c-11 -4 -34 -24 -52 -44 -20 -23 -32 -31 -32 -21 0 8 -4
15 -10 15 -5 0 -10 7 -10 15 0 12 -18 15 -97 15 -54 0 -115 3 -135 6 -30 5
-38 3 -38 -9 0 -8 9 -17 19 -20 18 -4 20 -16 23 -118 2 -63 2 -320 0 -571 l-2
-458 -35 0 c-24 0 -35 -5 -35 -15 0 -13 26 -15 170 -15 144 0 170 2 170 15 0
8 -8 15 -17 15 -17 0 -18 28 -17 463 0 255 3 468 6 473 3 5 9 25 13 44 17 80
67 144 93 118 7 -7 12 -18 12 -25 0 -7 5 -13 10 -13 12 0 14 -504 3 -843 -6
-202 -7 -217 -25 -217 -10 0 -18 -7 -18 -15 0 -13 25 -15 165 -15 140 0 165 2
165 15 0 8 -9 15 -20 15 -19 0 -20 9 -22 468 -2 257 0 469 5 470 4 2 7 11 7
19 0 35 26 97 52 125 23 25 31 28 43 18 8 -7 15 -23 15 -36 0 -12 5 -26 10
-29 6 -4 10 -188 10 -521 0 -507 0 -514 -20 -514 -11 0 -20 -7 -20 -15 0 -13
26 -15 175 -15 149 0 175 2 175 15 0 10 -11 15 -35 15 l-34 0 -5 482 c-3 266
-5 501 -5 523 -2 67 -28 137 -63 165 -27 21 -42 24 -112 25 -45 1 -90 -2 -102
-6 -24 -8 -84 -66 -84 -80 0 -5 -4 -9 -9 -9 -5 0 -12 -8 -14 -17 -4 -14 -5
-14 -6 3 0 12 -8 27 -16 34 -8 7 -15 19 -15 27 0 7 -8 17 -17 20 -10 4 -21 11
-25 17 -8 12 -165 17 -194 6z"/>
</g>
</svg>
